<?xml version="1.0" encoding="UTF-8"?>
<svg xmlns="http://www.w3.org/2000/svg" xmlns:xlink="http://www.w3.org/1999/xlink" width="1024px" height="1024px" viewBox="0 0 1024 1024" version="1.1">
<g id="surface1">
<path style=" stroke:none;fill-rule:nonzero;fill:rgb(83.137255%,91.372549%,97.254902%);fill-opacity:1;" d="M 0 0 C 337.921875 0 675.839844 0 1024 0 C 1024 337.921875 1024 675.839844 1024 1024 C 686.078125 1024 348.160156 1024 0 1024 C 0 686.078125 0 348.160156 0 0 Z M 0 0 "/>
<path style=" stroke:none;fill-rule:nonzero;fill:rgb(5.098039%,56.078431%,83.137255%);fill-opacity:1;" d="M 138.886719 249.527344 C 175.398438 249.527344 211.910156 249.527344 249.527344 249.527344 C 268.613281 290.421875 268.613281 290.421875 274.859375 304.074219 C 275.59375 305.679688 276.332031 307.285156 277.089844 308.9375 C 279.429688 314.046875 281.765625 319.15625 284.101562 324.265625 C 284.917969 326.050781 285.730469 327.832031 286.570312 329.667969 C 299.578125 358.121094 312.378906 386.65625 325.039062 415.265625 C 335.476562 438.851562 346.058594 462.375 356.625 485.90625 C 360.695312 494.980469 364.757812 504.058594 368.8125 513.140625 C 371.585938 519.359375 374.363281 525.574219 377.140625 531.789062 C 379.085938 536.144531 381.027344 540.503906 382.96875 544.863281 C 384.164062 547.53125 385.355469 550.199219 386.582031 552.945312 C 387.621094 555.273438 388.660156 557.601562 389.730469 560 C 393.8125 568.8125 398.148438 577.484375 402.539062 586.152344 C 403.59375 583.839844 404.648438 581.53125 405.734375 579.148438 C 409.730469 570.394531 413.726562 561.644531 417.726562 552.890625 C 419.4375 549.136719 421.152344 545.382812 422.867188 541.625 C 434.023438 517.179688 445.273438 492.78125 456.679688 468.449219 C 458.234375 468.449219 459.789062 468.449219 461.386719 468.449219 C 466.160156 478.617188 470.929688 488.785156 475.699219 498.953125 C 477.316406 502.398438 478.929688 505.84375 480.546875 509.285156 C 490.714844 530.949219 500.828125 552.636719 510.824219 574.382812 C 529.042969 538.734375 545.785156 502.414062 562.613281 466.097656 C 570.445312 473.320312 573.960938 481.746094 578.105469 491.394531 C 578.898438 493.195312 579.691406 495 580.507812 496.859375 C 583.042969 502.636719 585.554688 508.421875 588.0625 514.207031 C 591.355469 521.761719 594.65625 529.308594 597.96875 536.855469 C 598.765625 538.671875 599.5625 540.492188 600.382812 542.363281 C 606.933594 557.210938 613.980469 571.746094 621.460938 586.152344 C 640.492188 544.769531 659.394531 503.339844 677.8125 461.683594 C 691.414062 430.914062 705.328125 400.304688 719.445312 369.769531 C 733.796875 338.710938 747.71875 307.476562 761.394531 276.113281 C 762.101562 274.496094 762.808594 272.875 763.539062 271.207031 C 765.445312 266.84375 767.347656 262.480469 769.246094 258.113281 C 772.121094 251.878906 772.121094 251.878906 774.472656 249.527344 C 777.941406 249.308594 781.421875 249.25 784.898438 249.257812 C 787.113281 249.257812 789.328125 249.257812 791.609375 249.257812 C 794.015625 249.273438 796.425781 249.285156 798.90625 249.296875 C 801.359375 249.300781 803.8125 249.304688 806.335938 249.308594 C 814.203125 249.320312 822.074219 249.347656 829.941406 249.378906 C 835.261719 249.390625 840.578125 249.402344 845.898438 249.410156 C 858.96875 249.4375 872.042969 249.476562 885.113281 249.527344 C 872.988281 276.667969 860.710938 303.71875 847.988281 330.582031 C 843.902344 339.210938 839.832031 347.84375 835.761719 356.476562 C 834.945312 358.207031 834.132812 359.933594 833.292969 361.714844 C 825.941406 377.308594 818.65625 392.929688 811.402344 408.570312 C 810.199219 411.164062 808.996094 413.757812 807.757812 416.429688 C 802.03125 428.789062 796.3125 441.148438 790.59375 453.507812 C 784.976562 465.652344 779.359375 477.792969 773.738281 489.929688 C 772.785156 491.992188 771.832031 494.050781 770.847656 496.171875 C 756.964844 526.15625 742.96875 556.085938 728.875 585.972656 C 717.148438 610.832031 705.511719 635.734375 693.957031 660.675781 C 687.441406 674.734375 680.914062 688.785156 674.355469 702.824219 C 673.304688 705.066406 673.304688 705.066406 672.238281 707.351562 C 670.824219 710.375 669.410156 713.394531 668 716.417969 C 653.117188 748.253906 638.398438 780.164062 623.816406 812.136719 C 622.261719 812.136719 620.707031 812.136719 619.109375 812.136719 C 599.652344 772.042969 580.613281 731.785156 561.914062 691.332031 C 555.472656 677.410156 549.011719 663.5 542.535156 649.597656 C 541.136719 646.59375 539.738281 643.589844 538.34375 640.585938 C 529.484375 621.492188 520.34375 602.570312 510.824219 583.796875 C 481.421875 645.644531 481.421875 645.644531 452.414062 707.679688 C 451.214844 710.257812 450.019531 712.839844 448.785156 715.5 C 443.023438 727.945312 437.277344 740.398438 431.558594 752.863281 C 428.75 758.988281 425.929688 765.105469 423.109375 771.222656 C 421.128906 775.535156 419.15625 779.855469 417.1875 784.171875 C 415.988281 786.773438 414.789062 789.375 413.554688 792.054688 C 412.503906 794.347656 411.453125 796.640625 410.371094 799.003906 C 407.433594 804.707031 404.203125 809.503906 400.183594 814.492188 C 398.167969 810.171875 396.148438 805.847656 394.132812 801.527344 C 393.492188 800.152344 392.851562 798.777344 392.1875 797.359375 C 388.546875 789.558594 384.90625 781.753906 381.265625 773.949219 C 373.769531 757.890625 366.277344 741.832031 358.777344 725.773438 C 337.742188 680.726562 316.765625 635.648438 295.890625 590.523438 C 291.175781 580.335938 286.460938 570.148438 281.746094 559.964844 C 280.792969 557.902344 279.835938 555.835938 278.855469 553.710938 C 265.089844 523.980469 251.191406 494.3125 237.1875 464.691406 C 225.1875 439.28125 213.492188 413.746094 201.945312 388.128906 C 186.980469 354.949219 171.332031 322.101562 155.554688 289.300781 C 154.621094 287.347656 153.683594 285.394531 152.71875 283.378906 C 150.964844 279.710938 149.199219 276.042969 147.425781 272.382812 C 143.761719 264.71875 140.957031 257.804688 138.886719 249.527344 Z M 138.886719 249.527344 "/>
<path style=" stroke:none;fill-rule:nonzero;fill:rgb(13.333333%,34.509804%,64.705882%);fill-opacity:1;" d="M 138.886719 249.527344 C 175.398438 249.527344 211.910156 249.527344 249.527344 249.527344 C 268.613281 290.421875 268.613281 290.421875 274.859375 304.074219 C 275.59375 305.679688 276.332031 307.285156 277.089844 308.9375 C 279.429688 314.046875 281.765625 319.15625 284.101562 324.265625 C 284.917969 326.050781 285.730469 327.832031 286.570312 329.667969 C 299.578125 358.121094 312.378906 386.65625 325.039062 415.265625 C 335.476562 438.851562 346.058594 462.375 356.625 485.90625 C 360.695312 494.980469 364.757812 504.058594 368.8125 513.140625 C 371.585938 519.359375 374.363281 525.574219 377.140625 531.789062 C 379.085938 536.144531 381.027344 540.503906 382.96875 544.863281 C 384.164062 547.53125 385.355469 550.199219 386.582031 552.945312 C 387.621094 555.273438 388.660156 557.601562 389.730469 560 C 393.8125 568.8125 398.148438 577.484375 402.539062 586.152344 C 403.59375 583.839844 404.648438 581.53125 405.734375 579.148438 C 409.730469 570.394531 413.726562 561.644531 417.726562 552.890625 C 419.4375 549.136719 421.152344 545.382812 422.867188 541.625 C 434.023438 517.179688 445.273438 492.78125 456.679688 468.449219 C 458.234375 468.449219 459.789062 468.449219 461.386719 468.449219 C 466.203125 478.703125 471.015625 488.957031 475.828125 499.210938 C 477.460938 502.6875 479.09375 506.164062 480.726562 509.640625 C 485.371094 519.535156 490.003906 529.433594 494.621094 539.339844 C 496.523438 543.40625 498.457031 547.460938 500.390625 551.515625 C 501.445312 553.753906 502.5 555.992188 503.585938 558.300781 C 504.484375 560.183594 505.382812 562.070312 506.3125 564.011719 C 510.503906 575.011719 511.75 581.207031 507.6875 592.566406 C 506.113281 595.871094 504.503906 599.15625 502.859375 602.425781 C 502 604.214844 501.136719 606 500.25 607.839844 C 497.433594 613.671875 494.566406 619.480469 491.695312 625.289062 C 489.730469 629.339844 487.765625 633.398438 485.804688 637.457031 C 481.871094 645.601562 477.921875 653.734375 473.960938 661.867188 C 466.585938 677.050781 459.480469 692.351562 452.414062 707.679688 C 451.214844 710.261719 450.019531 712.84375 448.785156 715.503906 C 443.019531 727.945312 437.277344 740.398438 431.558594 752.863281 C 428.75 758.988281 425.929688 765.105469 423.109375 771.222656 C 421.128906 775.535156 419.15625 779.855469 417.1875 784.171875 C 415.988281 786.773438 414.789062 789.375 413.554688 792.054688 C 412.503906 794.347656 411.453125 796.640625 410.371094 799.003906 C 407.433594 804.707031 404.203125 809.503906 400.183594 814.492188 C 398.167969 810.171875 396.148438 805.847656 394.132812 801.527344 C 393.492188 800.152344 392.851562 798.777344 392.1875 797.359375 C 388.546875 789.558594 384.90625 781.753906 381.265625 773.949219 C 373.769531 757.890625 366.277344 741.832031 358.777344 725.773438 C 337.742188 680.726562 316.765625 635.648438 295.890625 590.523438 C 291.175781 580.335938 286.460938 570.148438 281.746094 559.964844 C 280.792969 557.902344 279.835938 555.835938 278.855469 553.710938 C 265.089844 523.980469 251.191406 494.3125 237.1875 464.691406 C 225.1875 439.28125 213.492188 413.746094 201.945312 388.128906 C 186.980469 354.949219 171.332031 322.101562 155.554688 289.300781 C 154.621094 287.347656 153.683594 285.394531 152.71875 283.378906 C 150.964844 279.710938 149.199219 276.042969 147.425781 272.382812 C 143.761719 264.71875 140.957031 257.804688 138.886719 249.527344 Z M 138.886719 249.527344 "/>
<path style=" stroke:none;fill-rule:nonzero;fill:rgb(10.980392%,41.176471%,70.588235%);fill-opacity:1;" d="M 357.8125 249.527344 C 394.324219 249.527344 430.832031 249.527344 468.449219 249.527344 C 484.339844 281.304688 484.339844 281.304688 490.132812 294.4375 C 491.976562 298.601562 491.976562 298.601562 493.859375 302.851562 C 495.085938 305.644531 496.316406 308.441406 497.582031 311.320312 C 498.878906 314.253906 500.175781 317.1875 501.472656 320.121094 C 504.59375 327.1875 507.710938 334.257812 510.824219 341.332031 C 523.105469 317.390625 534.589844 293.164062 545.570312 268.597656 C 547.011719 265.386719 547.011719 265.386719 548.476562 262.113281 C 549.332031 260.199219 550.1875 258.28125 551.066406 256.304688 C 553.195312 251.878906 553.195312 251.878906 555.550781 249.527344 C 558.945312 249.308594 562.351562 249.25 565.757812 249.257812 C 567.925781 249.257812 570.09375 249.257812 572.324219 249.257812 C 574.683594 249.273438 577.039062 249.285156 579.464844 249.296875 C 581.867188 249.300781 584.265625 249.304688 586.738281 249.308594 C 594.441406 249.320312 602.140625 249.347656 609.839844 249.378906 C 615.046875 249.390625 620.25 249.402344 625.457031 249.410156 C 638.25 249.4375 651.042969 249.476562 663.835938 249.527344 C 660.753906 259.269531 657.125 268.421875 652.78125 277.664062 C 651.503906 280.394531 650.226562 283.125 648.90625 285.9375 C 647.507812 288.90625 646.109375 291.875 644.707031 294.839844 C 643.246094 297.953125 641.789062 301.066406 640.328125 304.179688 C 633.179688 319.417969 626 334.636719 618.816406 349.859375 C 615.550781 356.78125 612.289062 363.703125 609.027344 370.625 C 607.414062 374.042969 605.800781 377.460938 604.183594 380.878906 C 593.597656 403.289062 583.15625 425.75 573.347656 448.515625 C 567.820312 461.136719 567.820312 461.136719 562.613281 463.742188 C 562.03125 462.429688 561.453125 461.121094 560.855469 459.769531 C 554.832031 446.132812 548.796875 432.5 542.753906 418.871094 C 540.5 413.785156 538.25 408.695312 536 403.601562 C 532.769531 396.289062 529.53125 388.980469 526.289062 381.671875 C 525.285156 379.394531 524.277344 377.113281 523.242188 374.761719 C 522.300781 372.640625 521.359375 370.523438 520.386719 368.335938 C 519.5625 366.472656 518.734375 364.605469 517.882812 362.683594 C 515.414062 357.289062 515.414062 357.289062 510.824219 350.75 C 504.535156 364.613281 498.253906 378.476562 491.972656 392.34375 C 489.835938 397.058594 487.699219 401.773438 485.5625 406.488281 C 482.484375 413.273438 479.414062 420.054688 476.339844 426.839844 C 475.386719 428.941406 474.433594 431.046875 473.449219 433.210938 C 469.230469 442.535156 465.058594 451.832031 461.386719 461.386719 C 459.835938 461.386719 458.28125 461.386719 456.679688 461.386719 C 435.566406 418.082031 414.808594 374.644531 394.640625 330.886719 C 390.492188 321.910156 386.320312 312.945312 382.140625 303.980469 C 380.714844 300.921875 379.289062 297.859375 377.863281 294.796875 C 375.800781 290.367188 373.734375 285.941406 371.667969 281.515625 C 369.78125 277.472656 367.898438 273.425781 366.015625 269.378906 C 364.402344 265.921875 364.402344 265.921875 362.757812 262.394531 C 360.164062 256.589844 360.164062 256.589844 357.8125 249.527344 Z M 357.8125 249.527344 "/>
<path style=" stroke:none;fill-rule:nonzero;fill:rgb(7.843137%,49.411765%,77.647059%);fill-opacity:1;" d="M 555.550781 249.527344 C 591.285156 249.527344 627.015625 249.527344 663.835938 249.527344 C 660.515625 259.484375 657.199219 268.261719 652.78125 277.664062 C 651.503906 280.394531 650.226562 283.125 648.90625 285.9375 C 647.507812 288.90625 646.109375 291.875 644.707031 294.839844 C 643.246094 297.953125 641.789062 301.066406 640.328125 304.179688 C 633.179688 319.417969 626 334.636719 618.816406 349.859375 C 615.550781 356.78125 612.289062 363.703125 609.027344 370.625 C 607.414062 374.042969 605.800781 377.460938 604.183594 380.878906 C 593.597656 403.289062 583.15625 425.75 573.347656 448.515625 C 567.820312 461.136719 567.820312 461.136719 562.613281 463.742188 C 555.984375 448.917969 549.367188 434.089844 542.753906 419.261719 C 540.507812 414.21875 538.253906 409.175781 536 404.136719 C 532.757812 396.882812 529.523438 389.621094 526.289062 382.363281 C 525.285156 380.117188 524.277344 377.875 523.242188 375.5625 C 521.402344 371.425781 519.589844 367.277344 517.804688 363.117188 C 515.960938 358.8125 514.027344 354.546875 512.070312 350.289062 C 510.300781 340.929688 513.621094 334.664062 517.757812 326.492188 C 518.523438 324.882812 519.292969 323.277344 520.082031 321.621094 C 522.542969 316.496094 525.070312 311.410156 527.59375 306.316406 C 529.242188 302.914062 530.886719 299.507812 532.523438 296.101562 C 540.054688 280.503906 547.804688 265.019531 555.550781 249.527344 Z M 555.550781 249.527344 "/>
</g>
</svg>
