<?xml version="1.0" encoding="UTF-8"?>
<svg version="1.1" xmlns="http://www.w3.org/2000/svg" width="435" height="435">
<path d="M0 0 C143.55 0 287.1 0 435 0 C435 143.55 435 287.1 435 435 C291.45 435 147.9 435 0 435 C0 291.45 0 147.9 0 0 Z " fill="#D4E9F8" transform="translate(0,0)"/>
<path d="M0 0 C15.51 0 31.02 0 47 0 C55.10756338 17.37335011 55.10756338 17.37335011 57.76171875 23.171875 C58.07427612 23.85396027 58.3868335 24.53604553 58.7088623 25.23880005 C59.70263537 27.40879238 60.69525937 29.57930655 61.6875 31.75 C62.03382477 32.50734436 62.38014954 33.26468872 62.73696899 34.04498291 C68.26142884 46.13170406 73.70066191 58.25332885 79.078125 70.40625 C83.51230471 80.42665611 88.00805932 90.41950219 92.4960022 100.41590881 C94.22576846 104.27023121 95.95077205 108.12665237 97.67253113 111.98455811 C98.8513117 114.62569014 100.03135935 117.26625525 101.2114563 119.90679932 C102.03792841 121.75747803 102.86261956 123.60895176 103.68725586 125.46044922 C104.19393799 126.59369629 104.70062012 127.72694336 105.22265625 128.89453125 C105.66359619 129.88300049 106.10453613 130.87146973 106.55883789 131.88989258 C108.2938697 135.63418703 110.13606815 139.31856538 112 143 C112.44802979 142.01829834 112.89605957 141.03659668 113.35766602 140.02514648 C115.05494703 136.30659435 116.75306838 132.58842642 118.45141602 128.87036133 C119.17982763 127.27541039 119.90802536 125.68036175 120.63598633 124.08520508 C125.37536791 113.70043177 130.15381798 103.33539115 135 93 C135.66 93 136.32 93 137 93 C139.02688862 97.3190101 141.0532278 101.63827744 143.07910156 105.95776367 C143.76548136 107.42104721 144.45200017 108.88426554 145.13867188 110.34741211 C149.45763262 119.55046077 153.75350649 128.76322593 158 138 C165.73944987 122.85736783 172.85250421 107.42798417 180 92 C183.32807072 95.06811932 184.82059728 98.64861245 186.58203125 102.74609375 C186.91869308 103.51244644 187.25535492 104.27879913 187.60221863 105.06837463 C188.67895876 107.52190451 189.74627926 109.97938268 190.8125 112.4375 C192.21073198 115.64634131 193.61324925 118.85327242 195.01953125 122.05859375 C195.35800079 122.83085297 195.69647034 123.60311218 196.04519653 124.39877319 C198.82865082 130.70648122 201.82102672 136.88064685 205 143 C213.08431411 125.42116587 221.11381483 107.82158763 228.9375 90.125 C234.71614809 77.05457503 240.62721984 64.05110022 246.62374878 51.07928467 C252.71992593 37.88526323 258.63430486 24.61716601 264.44360352 11.29443359 C264.74440323 10.60660797 265.04520294 9.91878235 265.3551178 9.21011353 C266.16523783 7.35679524 266.97237333 5.50217318 267.77929688 3.64746094 C269 1 269 1 270 0 C271.47354348 -0.09304018 272.95150591 -0.11746265 274.42797852 -0.11352539 C275.36887833 -0.11344986 276.30977814 -0.11337433 277.27919006 -0.11329651 C278.30209641 -0.10813522 279.32500275 -0.10297394 280.37890625 -0.09765625 C281.42070541 -0.0962413 282.46250458 -0.09482635 283.53587341 -0.09336853 C286.87811094 -0.0877508 290.22028257 -0.0751953 293.5625 -0.0625 C295.82226466 -0.05748728 298.08203037 -0.05292398 300.34179688 -0.04882812 C305.89455391 -0.03777561 311.44727225 -0.02102024 317 0 C311.84956211 11.52936318 306.63440111 23.02166169 301.22860718 34.43362427 C299.49310251 38.09822516 297.7644673 41.7660671 296.03515625 45.43359375 C295.68898758 46.16746811 295.34281891 46.90134247 294.98616028 47.65745544 C291.86323697 54.28164029 288.76842836 60.91867726 285.6875 67.5625 C285.17646729 68.6644873 284.66543457 69.76647461 284.13891602 70.90185547 C281.70634443 76.1511861 279.2766211 81.40183166 276.84765625 86.65283203 C274.46177571 91.81060949 272.07504506 96.96799284 269.6875 102.125 C269.28242218 102.99999146 268.87734436 103.87498291 268.45999146 104.77648926 C262.56150487 117.51359469 256.61723048 130.22824307 250.62930298 142.92352295 C245.64787697 153.48494048 240.70467027 164.06299835 235.79589844 174.65844727 C233.02892005 180.63058034 230.25606756 186.59983771 227.46875 192.5625 C227.0234494 193.51511215 227.0234494 193.51511215 226.56915283 194.48696899 C225.96916881 195.77039131 225.36917289 197.05380806 224.76916504 198.33721924 C218.44693946 211.86160335 212.19454633 225.41654658 206 239 C205.34 239 204.68 239 204 239 C195.73539043 221.9679132 187.64650353 204.86580072 179.703125 187.68115234 C176.96820938 181.76723541 174.22224438 175.85846802 171.47116089 169.95205688 C170.87731636 168.67631329 170.28412812 167.40026395 169.69168091 166.12387085 C165.92700074 158.01321255 162.04489632 149.9747719 158 142 C145.51091666 168.27353918 145.51091666 168.27353918 133.1875 194.625 C132.67888428 195.72166992 132.17026855 196.81833984 131.64624023 197.94824219 C129.19766864 203.23456749 126.75771738 208.52474807 124.32887268 213.82015991 C123.13498513 216.42120565 121.93753941 219.0206052 120.73965454 221.61981201 C119.89732863 223.45144648 119.06028545 225.28550745 118.22338867 227.11962891 C117.71396729 228.22483887 117.2045459 229.33004883 116.6796875 230.46875 C116.23351074 231.44263672 115.78733398 232.41652344 115.32763672 233.41992188 C114.08027779 235.84399123 112.70657414 237.88132166 111 240 C110.14322917 238.1640625 109.28645833 236.328125 108.4296875 234.4921875 C108.15717667 233.90824219 107.88466583 233.32429687 107.60389709 232.72265625 C106.05692331 229.40773957 104.50999345 226.09280242 102.96313477 222.77783203 C99.7796615 215.95565614 96.59569712 209.13371071 93.41015625 202.3125 C84.4737646 183.17559761 75.56282412 164.02694762 66.69551086 144.85792542 C64.69344695 140.53000292 62.69059681 136.20244452 60.6875 131.875 C60.28193878 130.99870941 59.87637756 130.12241882 59.45852661 129.21957397 C53.6111628 116.58905338 47.70651427 103.98695356 41.7590332 91.40332031 C36.66082395 80.60948495 31.69293374 69.76187777 26.78790283 58.87905884 C20.42948566 44.78447428 13.78226464 30.83029281 7.08081055 16.89599609 C6.68334122 16.06609665 6.28587189 15.2361972 5.87635803 14.38114929 C5.1297808 12.82235611 4.38022502 11.26498471 3.62718201 9.70930481 C2.07073024 6.45442994 0.87934353 3.51737412 0 0 Z " fill="#0D8FD4" transform="translate(59,106)"/>
<path d="M0 0 C15.51 0 31.02 0 47 0 C55.10756338 17.37335011 55.10756338 17.37335011 57.76171875 23.171875 C58.07427612 23.85396027 58.3868335 24.53604553 58.7088623 25.23880005 C59.70263537 27.40879238 60.69525937 29.57930655 61.6875 31.75 C62.03382477 32.50734436 62.38014954 33.26468872 62.73696899 34.04498291 C68.26142884 46.13170406 73.70066191 58.25332885 79.078125 70.40625 C83.51230471 80.42665611 88.00805932 90.41950219 92.4960022 100.41590881 C94.22576846 104.27023121 95.95077205 108.12665237 97.67253113 111.98455811 C98.8513117 114.62569014 100.03135935 117.26625525 101.2114563 119.90679932 C102.03792841 121.75747803 102.86261956 123.60895176 103.68725586 125.46044922 C104.19393799 126.59369629 104.70062012 127.72694336 105.22265625 128.89453125 C105.66359619 129.88300049 106.10453613 130.87146973 106.55883789 131.88989258 C108.2938697 135.63418703 110.13606815 139.31856538 112 143 C112.44802979 142.01829834 112.89605957 141.03659668 113.35766602 140.02514648 C115.05494703 136.30659435 116.75306838 132.58842642 118.45141602 128.87036133 C119.17982763 127.27541039 119.90802536 125.68036175 120.63598633 124.08520508 C125.37536791 113.70043177 130.15381798 103.33539115 135 93 C135.66 93 136.32 93 137 93 C139.04553668 97.35547294 141.09017314 101.71136699 143.1340332 106.06762695 C143.82715483 107.54462657 144.52050783 109.02151763 145.21411133 110.49829102 C147.18780858 114.70076985 149.15513284 118.90613615 151.11663818 123.11431885 C151.92606695 124.84217775 152.74689276 126.56468571 153.56884766 128.28662109 C154.01663574 129.23746582 154.46442383 130.18831055 154.92578125 131.16796875 C155.30774658 131.96871826 155.68971191 132.76946777 156.08325195 133.59448242 C157.86411335 138.2674058 158.39360721 140.89965943 156.66748047 145.72509766 C156.00004951 147.1291375 155.31546973 148.52510826 154.6171875 149.9140625 C154.25156204 150.67291748 153.88593658 151.43177246 153.50923157 152.21362305 C152.31191123 154.69120439 151.09341783 157.15773583 149.875 159.625 C149.03902363 161.34729725 148.20480909 163.07045071 147.37231445 164.79443359 C145.70093709 168.25374371 144.02335159 171.70992702 142.34130859 175.1640625 C139.20869082 181.61391429 136.18973365 188.11355174 133.1875 194.625 C132.67896484 195.72215332 132.17042969 196.81930664 131.64648438 197.94970703 C129.19686988 203.23510136 126.75754744 208.52511858 124.32887268 213.82015991 C123.13498513 216.42120565 121.93753941 219.0206052 120.73965454 221.61981201 C119.89732863 223.45144648 119.06028545 225.28550745 118.22338867 227.11962891 C117.71396729 228.22483887 117.2045459 229.33004883 116.6796875 230.46875 C116.23351074 231.44263672 115.78733398 232.41652344 115.32763672 233.41992188 C114.08027779 235.84399123 112.70657414 237.88132166 111 240 C110.14322917 238.1640625 109.28645833 236.328125 108.4296875 234.4921875 C108.15717667 233.90824219 107.88466583 233.32429687 107.60389709 232.72265625 C106.05692331 229.40773957 104.50999345 226.09280242 102.96313477 222.77783203 C99.7796615 215.95565614 96.59569712 209.13371071 93.41015625 202.3125 C84.4737646 183.17559761 75.56282412 164.02694762 66.69551086 144.85792542 C64.69344695 140.53000292 62.69059681 136.20244452 60.6875 131.875 C60.28193878 130.99870941 59.87637756 130.12241882 59.45852661 129.21957397 C53.6111628 116.58905338 47.70651427 103.98695356 41.7590332 91.40332031 C36.66082395 80.60948495 31.69293374 69.76187777 26.78790283 58.87905884 C20.42948566 44.78447428 13.78226464 30.83029281 7.08081055 16.89599609 C6.68334122 16.06609665 6.28587189 15.2361972 5.87635803 14.38114929 C5.1297808 12.82235611 4.38022502 11.26498471 3.62718201 9.70930481 C2.07073024 6.45442994 0.87934353 3.51737412 0 0 Z " fill="#2258A5" transform="translate(59,106)"/>
<path d="M0 0 C15.51 0 31.02 0 47 0 C53.75 13.5 53.75 13.5 56.2109375 19.078125 C56.99404297 20.84736328 56.99404297 20.84736328 57.79296875 22.65234375 C58.31503906 23.83957031 58.83710938 25.02679688 59.375 26.25 C59.92551549 27.49621118 60.47629557 28.74230552 61.02734375 29.98828125 C62.35415149 32.99105665 63.67832274 35.99496378 65 39 C70.21705221 28.82820547 75.09592331 18.53821474 79.76123047 8.10107422 C80.37248779 6.73813232 80.37248779 6.73813232 80.99609375 5.34765625 C81.35888428 4.53304932 81.7216748 3.71844238 82.09545898 2.87915039 C83 1 83 1 84 0 C85.44289787 -0.09295815 86.89029785 -0.11746513 88.33618164 -0.11352539 C89.2570607 -0.11344986 90.17793976 -0.11337433 91.12672424 -0.11329651 C92.12775681 -0.10813522 93.12878937 -0.10297394 94.16015625 -0.09765625 C95.17975937 -0.0962413 96.19936249 -0.09482635 97.24986267 -0.09336853 C100.52077107 -0.08775097 103.79161213 -0.0751955 107.0625 -0.0625 C109.27408756 -0.05748726 111.48567618 -0.05292396 113.69726562 -0.04882812 C119.13153357 -0.03777584 124.56576197 -0.02102063 130 0 C128.69059603 4.13811636 127.15027856 8.02614872 125.3046875 11.953125 C124.76158936 13.11279785 124.21849121 14.2724707 123.65893555 15.46728516 C123.06432917 16.7282084 122.46968284 17.98911281 121.875 19.25 C121.2546674 20.57196364 120.63463803 21.8940696 120.01489258 23.21630859 C116.97849221 29.68958372 113.92706483 36.15577913 110.87631226 42.62229919 C109.48942741 45.56217974 108.10313087 48.50233752 106.71691895 51.4425354 C106.0318867 52.89486793 105.34642273 54.3469969 104.66052246 55.79891968 C100.16346954 65.31946303 95.72762203 74.8603152 91.5612793 84.53173828 C89.2124825 89.89375875 89.2124825 89.89375875 87 91 C86.7538797 90.44289841 86.5077594 89.88579681 86.25418091 89.31181335 C83.69446324 83.51929059 81.13084409 77.72850627 78.56494141 71.9387207 C77.60755628 69.77705612 76.65117044 67.61494867 75.69580078 65.45239258 C74.32325849 62.34600014 72.94714305 59.24121246 71.5703125 56.13671875 C71.14315948 55.16788254 70.71600647 54.19904633 70.27590942 53.20085144 C69.87564545 52.3001442 69.47538147 51.39943695 69.06298828 50.47143555 C68.71213165 49.67867722 68.36127502 48.88591888 67.99978638 48.06913757 C66.95101126 45.77760546 66.95101126 45.77760546 65 43 C62.32919028 48.88919588 59.66009749 54.77916766 56.9921875 60.66967773 C56.08470381 62.67278593 55.17682964 64.67571726 54.26855469 66.6784668 C52.96185851 69.55991773 51.65657551 72.44200519 50.3515625 75.32421875 C49.94628326 76.21711105 49.54100403 77.11000336 49.1234436 78.029953 C47.33181257 81.9901945 45.55929124 85.94071834 44 90 C43.34 90 42.68 90 42 90 C33.03138576 71.60265074 24.21227509 53.1501914 15.64550781 34.56152344 C13.88365618 30.7481864 12.1112757 26.93988252 10.3359375 23.1328125 C9.72995425 21.83228761 9.1239969 20.53175064 8.51806641 19.23120117 C7.64160137 17.3500394 6.76474553 15.46906651 5.88641357 13.58877563 C5.08424588 11.87107586 4.28425909 10.15235812 3.484375 8.43359375 C2.79939941 6.96490845 2.79939941 6.96490845 2.10058594 5.46655273 C1 3 1 3 0 0 Z " fill="#1C69B4" transform="translate(152,106)"/>
<path d="M0 0 C15.18 0 30.36 0 46 0 C44.5899245 4.23022649 43.18185922 7.95895262 41.3046875 11.953125 C40.76158936 13.11279785 40.21849121 14.2724707 39.65893555 15.46728516 C39.06432917 16.7282084 38.46968284 17.98911281 37.875 19.25 C37.2546674 20.57196364 36.63463803 21.8940696 36.01489258 23.21630859 C32.97849221 29.68958372 29.92706483 36.15577913 26.87631226 42.62229919 C25.48942741 45.56217974 24.10313087 48.50233752 22.71691895 51.4425354 C22.0318867 52.89486793 21.34642273 54.3469969 20.66052246 55.79891968 C16.16346954 65.31946303 11.72762203 74.8603152 7.5612793 84.53173828 C5.2124825 89.89375875 5.2124825 89.89375875 3 91 C0.1843661 84.70292967 -2.62685784 78.40390427 -5.43505859 72.10351562 C-6.39042936 69.96146356 -7.34680004 67.81985717 -8.30419922 65.67871094 C-9.6820107 62.59687715 -11.05619076 59.51344624 -12.4296875 56.4296875 C-12.85684052 55.47633514 -13.28399353 54.52298279 -13.72409058 53.54074097 C-14.50511288 51.78366186 -15.27572774 50.02190063 -16.03335571 48.25460815 C-16.81748105 46.42570851 -17.63818835 44.6125234 -18.46972656 42.8046875 C-19.22156197 38.82812895 -17.81191273 36.16735148 -16.0546875 32.6953125 C-15.72840363 32.01250214 -15.40211975 31.32969177 -15.06594849 30.62619019 C-14.0205473 28.44973382 -12.94841954 26.28775231 -11.875 24.125 C-11.17528819 22.67925286 -10.47735283 21.23264451 -9.78125 19.78515625 C-6.58279552 13.15890203 -3.29058637 6.58117275 0 0 Z " fill="#147EC6" transform="translate(236,106)"/>
</svg>
